# xmcd
#
# Track frame offsets: 
#        150
#        12931
#        22716
#        37398
#        48189
#        58592
#        71429
#        84286
#        97685
#        107652
#        116846
#        128071
#        140575
#        150697
#        161526
#        172716
#        183958
#        194703
#        205664
#        219378
#        229615
#        242265
#        253497
#        264559
#        275357
#        286045
#
# Disc length: 3955 seconds
#
# Revision: 0
# Processed by: cddbd v1.5.2PL0 Copyright (c) Steve Scherf et al.
# Submitted via: ExactAudioCopy v0.99pb4
#
DISCID=5c0f711a
DTITLE=Various Artist - The OKeh Rhythm and Blues Story 1949-1957 Volum
DTITLE=e 3
DYEAR=2008
DGENRE=R&B
TTITLE0=But Officer!
TTITLE1=Give Me One More Drink
TTITLE2=Leave It To Me
TTITLE3=Square Dance Boogie
TTITLE4=You're Cash Ain't Nothin' But Trash
TTITLE5=One Monkey Don't Stop No Show
TTITLE6=My Lonely Room
TTITLE7=Uh Oh (Get Out Of The Car)
TTITLE8=Creole Alley
TTITLE9=Give Me Your Love
TTITLE10=Bad,Bad Woman
TTITLE11=I'm Gettin' 'Long All Right
TTITLE12=Oop Shoop
TTITLE13=Jump Ted!
TTITLE14=Ocean Of Tears
TTITLE15=Ring-Ding-Doo
TTITLE16=Little Demon
TTITLE17=I Put A Spell On You
TTITLE18=Bacon Fat
TTITLE19=The Last Meal
TTITLE20=Let's Do The Slop
TTITLE21=Where You Been
TTITLE22=Miss Mushmouth
TTITLE23=Wyatt Earp
TTITLE24=Billy's Heartache
TTITLE25=Yellow Coat
EXTD=
EXTT0=
EXTT1=
EXTT2=
EXTT3=
EXTT4=
EXTT5=
EXTT6=
EXTT7=
EXTT8=
EXTT9=
EXTT10=
EXTT11=
EXTT12=
EXTT13=
EXTT14=
EXTT15=
EXTT16=
EXTT17=
EXTT18=
EXTT19=
EXTT20=
EXTT21=
EXTT22=
EXTT23=
EXTT24=
EXTT25=
PLAYORDER=
